<svg width="479" height="828" viewBox="0 0 479 828" fill="none" xmlns="http://www.w3.org/2000/svg">
<g clip-path="url(#clip0_5_70)">
<path d="M392.228 77.8955H371.276V366.397H392.228V77.8955Z" fill="#825A2C" stroke="black" stroke-width="15"/>
<path d="M399.72 377.991L375.059 390.301C369.006 393.077 361.838 390.551 358.872 384.595C355.907 378.641 358.215 371.41 364.086 368.267L388.746 355.958C392.708 353.837 397.513 354.036 401.284 356.479C405.056 358.922 407.197 363.22 406.871 367.697C406.545 372.173 403.806 376.118 399.72 377.991Z" fill="#A0522D" stroke="black" stroke-width="15"/>
<path d="M399.72 433.134L375.059 445.443C369.006 448.219 361.838 445.693 358.872 439.738C355.907 433.783 358.215 426.553 364.086 423.41L388.746 411.1C392.708 408.979 397.513 409.179 401.284 411.621C405.056 414.064 407.197 418.363 406.871 422.84C406.545 427.316 403.806 431.26 399.72 433.134Z" fill="#A0522D" stroke="black" stroke-width="15"/>
<path d="M399.72 405.503L375.059 417.813C371.097 419.934 366.293 419.734 362.521 417.291C358.75 414.848 356.609 410.55 356.934 406.073C357.259 401.597 360 397.652 364.085 395.778L388.746 383.469C392.708 381.348 397.513 381.548 401.284 383.991C405.055 386.434 407.197 390.732 406.871 395.208C406.546 399.685 403.806 403.63 399.72 405.503Z" fill="#825A2C" stroke="black" stroke-width="15"/>
<path d="M438.025 617.25C438.247 620.95 437.636 624.65 436.237 628.083C435.626 629.763 434.798 631.357 433.771 632.822C432.398 634.859 430.689 636.649 428.716 638.115C417.4 645.575 404.231 649.751 390.677 650.178C386.362 650.548 381.738 650.732 376.621 650.732C371.503 650.732 366.879 650.548 362.564 650.178C349.01 649.751 335.842 645.575 324.525 638.115C322.553 636.649 320.843 634.859 319.47 632.822C318.444 631.357 317.615 629.763 317.004 628.083C315.605 624.65 314.994 620.95 315.216 617.25C315.751 603.58 318.285 590.06 322.738 577.122C340.338 581.575 358.472 583.563 376.621 583.03C394.769 583.563 412.904 581.575 430.503 577.122C434.956 590.06 437.49 603.58 438.025 617.25Z" fill="#E91E63"/>
<path d="M430.503 577.122C424.812 578.741 419.012 579.959 413.149 580.766C416.857 592.598 419.003 604.863 419.53 617.25C419.751 620.95 419.14 624.65 417.742 628.083C417.131 629.763 416.302 631.357 415.276 632.822C413.903 634.859 412.194 636.649 410.221 638.115C398.904 645.575 385.735 649.751 372.182 650.178C370.641 650.308 369.001 650.388 367.373 650.473C370.301 650.628 373.335 650.732 376.62 650.732C381.738 650.732 386.362 650.548 390.677 650.178C404.231 649.751 417.4 645.575 428.716 638.115C430.689 636.649 432.398 634.859 433.771 632.822C434.797 631.357 435.626 629.763 436.237 628.083C437.636 624.65 438.247 620.95 438.025 617.25C437.49 603.58 434.956 590.06 430.503 577.122Z" fill="#AD1457"/>
<path d="M438.025 617.25C438.247 620.95 437.636 624.65 436.237 628.083C435.626 629.763 434.798 631.357 433.771 632.822C432.398 634.859 430.689 636.649 428.716 638.115C417.4 645.575 404.231 649.751 390.677 650.178C386.362 650.548 381.738 650.732 376.621 650.732C371.503 650.732 366.879 650.548 362.564 650.178C349.01 649.751 335.842 645.575 324.525 638.115C322.553 636.649 320.843 634.859 319.47 632.822C318.444 631.357 317.615 629.763 317.004 628.083C315.605 624.65 314.994 620.95 315.216 617.25C315.751 603.58 318.285 590.06 322.738 577.122C340.338 581.575 358.472 583.563 376.621 583.03C394.769 583.563 412.904 581.575 430.503 577.122C434.956 590.06 437.49 603.58 438.025 617.25Z" stroke="black" stroke-width="15"/>
<path d="M382.785 613.804H370.456C367.051 613.804 364.29 616.559 364.29 619.959C364.29 623.358 367.051 626.113 370.456 626.113H382.785C386.19 626.113 388.951 623.358 388.951 619.959C388.951 616.559 386.19 613.804 382.785 613.804Z" fill="black"/>
<path d="M315.216 617.251C314.994 620.949 315.605 624.65 317.004 628.083C298.632 639.161 289.199 634.176 284.267 626.544C279.241 618.084 279.054 607.605 283.774 598.971C289.085 587.832 296.814 578.014 306.4 570.229C311.529 573.213 317.019 575.529 322.738 577.122C318.285 590.061 315.751 603.58 315.216 617.251Z" fill="#9D27B0" stroke="black" stroke-width="15"/>
<path d="M468.973 626.544C464.042 634.176 454.609 639.161 436.237 628.083C437.635 624.65 438.247 620.949 438.025 617.251C437.49 603.58 434.956 590.061 430.503 577.122C436.222 575.529 441.712 573.213 446.841 570.229C456.427 578.014 464.156 587.832 469.467 598.971C474.187 607.605 474 618.084 468.973 626.544Z" fill="#9D27B0"/>
<path d="M469.467 598.971C464.156 587.832 456.427 578.014 446.841 570.229C442.962 572.506 438.857 574.375 434.591 575.805C441.283 582.582 446.816 590.407 450.972 598.971C455.692 607.605 455.505 618.084 450.479 626.544C449.021 628.885 447.045 630.86 444.702 632.317C457.618 637.383 464.868 632.902 468.974 626.544C474 618.084 474.188 607.605 469.467 598.971Z" fill="#6A1B9A"/>
<path d="M468.973 626.544C464.042 634.176 454.609 639.161 436.237 628.083C437.635 624.65 438.247 620.949 438.025 617.251C437.49 603.58 434.956 590.061 430.503 577.122C436.222 575.529 441.712 573.213 446.841 570.229C456.427 578.014 464.156 587.832 469.467 598.971C474.187 607.605 474 618.084 468.973 626.544Z" stroke="black" stroke-width="15"/>
<path d="M362.564 650.178C361.886 676.089 357.262 691.784 352.638 701.016C349.374 707.832 342.511 712.201 334.944 712.279C334.348 712.289 333.751 712.269 333.156 712.218C323.363 710.949 315.886 702.862 315.401 693.015C314.563 672.862 315.928 652.679 319.47 632.822C320.843 634.859 322.552 636.649 324.525 638.115C335.841 645.575 349.01 649.751 362.564 650.178Z" fill="#3F51B5" stroke="black" stroke-width="15"/>
<path d="M437.84 693.015C437.355 702.862 429.878 710.949 420.085 712.218C419.49 712.269 418.893 712.289 418.296 712.279C410.73 712.201 403.866 707.832 400.603 701.016C395.979 691.784 391.355 676.089 390.677 650.178C404.231 649.751 417.4 645.575 428.716 638.115C430.689 636.649 432.398 634.859 433.771 632.822C437.313 652.679 438.677 672.862 437.84 693.015Z" fill="#3F51B5"/>
<path d="M433.771 632.822C432.398 634.859 430.689 636.649 428.716 638.115C425.106 640.725 421.167 642.848 417.002 644.43C419.388 660.508 420.172 676.782 419.345 693.015C418.893 699.991 415 706.288 408.956 709.817C411.808 711.421 415.023 712.268 418.296 712.279C418.893 712.289 419.49 712.269 420.084 712.218C429.877 710.949 437.355 702.862 437.84 693.015C438.677 672.862 437.312 652.679 433.771 632.822Z" fill="#283593"/>
<path d="M437.84 693.015C437.355 702.862 429.878 710.949 420.085 712.218C419.49 712.269 418.893 712.289 418.296 712.279C410.73 712.201 403.866 707.832 400.603 701.016C395.979 691.784 391.355 676.089 390.677 650.178C404.231 649.751 417.4 645.575 428.716 638.115C430.689 636.649 432.398 634.859 433.771 632.822C437.313 652.679 438.677 672.862 437.84 693.015Z" stroke="black" stroke-width="15"/>
<path d="M469.097 509.174C469.097 534.531 469.097 556.935 446.841 570.229C441.712 573.213 436.222 575.529 430.503 577.122C412.904 581.575 394.769 583.563 376.62 583.03C358.472 583.563 340.337 581.575 322.738 577.122C317.019 575.529 311.529 573.213 306.4 570.229C284.144 556.935 284.144 534.531 284.144 509.174C284.144 475.077 313.058 446.396 352.33 437.902C360.313 436.189 368.455 435.322 376.62 435.317C380.968 435.313 385.31 435.56 389.629 436.056C434.511 441.103 469.097 471.876 469.097 509.174Z" fill="#FFE0B2"/>
<path d="M389.629 436.056C385.31 435.56 380.968 435.313 376.62 435.317C373.692 435.317 370.844 435.57 367.989 435.786C369.037 435.878 370.098 435.933 371.14 436.056C416.015 441.103 450.602 471.876 450.602 509.174C450.602 534.531 450.602 556.935 428.346 570.229C423.216 573.213 417.726 575.529 412.008 577.122C397.435 580.929 382.436 582.873 367.373 582.907C370.357 582.981 373.421 583.03 376.62 583.03C394.769 583.563 412.904 581.575 430.503 577.122C436.222 575.529 441.712 573.213 446.841 570.229C469.097 556.935 469.097 534.531 469.097 509.174C469.097 471.876 434.511 441.103 389.629 436.056Z" fill="#DFC49C"/>
<path d="M469.097 509.174C469.097 534.531 469.097 556.935 446.841 570.229C441.712 573.213 436.222 575.529 430.503 577.122C412.904 581.575 394.769 583.563 376.62 583.03C358.472 583.563 340.337 581.575 322.738 577.122C317.019 575.529 311.529 573.213 306.4 570.229C284.144 556.935 284.144 534.531 284.144 509.174C284.144 475.077 313.058 446.396 352.33 437.902C360.313 436.189 368.455 435.322 376.62 435.317C380.968 435.313 385.31 435.56 389.629 436.056C434.511 441.103 469.097 471.876 469.097 509.174Z" stroke="black" stroke-width="15"/>
<path d="M336.547 552.256C345.059 552.256 351.96 545.368 351.96 536.87C351.96 528.372 345.059 521.483 336.547 521.483C328.035 521.483 321.135 528.372 321.135 536.87C321.135 545.368 328.035 552.256 336.547 552.256Z" fill="#3F51B5"/>
<path d="M416.694 552.256C425.206 552.256 432.107 545.368 432.107 536.87C432.107 528.372 425.206 521.483 416.694 521.483C408.182 521.483 401.281 528.372 401.281 536.87C401.281 545.368 408.182 552.256 416.694 552.256Z" fill="#3F51B5"/>
<path d="M314.97 552.257C314.97 555.656 317.73 558.412 321.135 558.412H351.96C355.365 558.412 358.125 555.656 358.125 552.257C358.1 550.226 357.053 548.342 355.339 547.247C357.141 544.083 358.1 540.51 358.125 536.87C358.125 524.973 348.464 515.329 336.547 515.329C324.63 515.329 314.97 524.973 314.97 536.87C314.995 540.51 315.954 544.083 317.756 547.247C316.042 548.342 314.995 550.226 314.97 552.257ZM336.547 527.638C341.655 527.638 345.795 531.772 345.795 536.87C345.795 541.969 341.655 546.102 336.547 546.102C331.44 546.102 327.299 541.969 327.299 536.87C327.299 531.772 331.44 527.638 336.547 527.638Z" fill="black"/>
<path d="M395.116 552.257C395.116 555.656 397.876 558.412 401.281 558.412H432.106C435.511 558.412 438.272 555.656 438.272 552.257C438.247 550.226 437.199 548.342 435.485 547.247C437.286 544.083 438.246 540.51 438.272 536.87C438.272 524.973 428.611 515.329 416.694 515.329C404.777 515.329 395.116 524.973 395.116 536.87C395.142 540.51 396.1 544.083 397.902 547.247C396.189 548.342 395.141 550.226 395.116 552.257ZM416.694 527.638C421.801 527.638 425.941 531.772 425.941 536.87C425.941 541.969 421.801 546.102 416.694 546.102C411.587 546.102 407.446 541.969 407.446 536.87C407.446 531.772 411.587 527.638 416.694 527.638Z" fill="black"/>
<path d="M246.449 77.5623L61.5054 250.034L36.8462 223.681L221.789 51.2091L246.449 77.5623Z" fill="#C4C4C4" stroke="black" stroke-width="15"/>
<path fill-rule="evenodd" clip-rule="evenodd" d="M453.713 16.5888C453.713 10.6137 448.861 5.77002 442.876 5.77002H16.617C10.6318 5.77002 5.77983 10.6137 5.77983 16.5888V77.8955L5.77979 811.411C5.77979 817.383 10.6317 822.23 16.6169 822.23H67.19C73.175 822.23 78.0271 817.383 78.0271 811.411V88.7143C78.0271 82.7394 82.8793 77.8955 88.8643 77.8955H442.876C448.861 77.8955 453.713 73.0515 453.713 67.0766V16.5888Z" fill="#56412A"/>
<path d="M5.77992 77.8954H11.1985H5.77992ZM78.0272 811.411H72.6087H78.0272ZM16.6171 11.1794H442.876V0.360596H16.6171V11.1794ZM11.1985 77.8954V16.5888H0.361371V77.8954H11.1985ZM11.1984 811.411L11.1985 77.8954H0.361371L0.361328 811.411H11.1984ZM67.1901 816.82H16.617V827.639H67.1901V816.82ZM72.6087 88.7143V811.411H83.4458V88.7143H72.6087ZM442.876 72.486H88.8643V83.3048H442.876V72.486ZM448.295 16.5888V67.0766H459.132V16.5888H448.295ZM442.876 83.3048C451.854 83.3048 459.132 76.0389 459.132 67.0766H448.295C448.295 70.0641 445.869 72.486 442.876 72.486V83.3048ZM67.1901 827.639C76.1676 827.639 83.4458 820.376 83.4458 811.411H72.6087C72.6087 814.397 70.1827 816.82 67.1901 816.82V827.639ZM0.361328 811.411C0.361327 820.376 7.63924 827.639 16.617 827.639V816.82C13.6244 816.82 11.1984 814.397 11.1984 811.411H0.361328ZM442.876 11.1794C445.869 11.1794 448.295 13.6013 448.295 16.5888H459.132C459.132 7.62622 451.854 0.360596 442.876 0.360596V11.1794ZM83.4458 88.7143C83.4458 85.7268 85.8719 83.3048 88.8643 83.3048V72.486C79.8869 72.486 72.6087 79.7519 72.6087 88.7143H83.4458ZM16.6171 0.360596C7.63931 0.360596 0.361371 7.62622 0.361371 16.5888H11.1985C11.1985 13.6013 13.6244 11.1794 16.6171 11.1794V0.360596Z" fill="black"/>
</g>
<defs>
<clipPath id="clip0_5_70">
<rect width="479" height="828" fill="white"/>
</clipPath>
</defs>
</svg>
